<svg xmlns="http://www.w3.org/2000/svg" height="20px" viewBox="0 -960 960 960" width="20px" fill="#e3e3e3"><path d="M173.5-437.5Q156-455 156-480t17.5-42.5Q191-540 216-540t42.5 17.5Q276-505 276-480t-17.5 42.5Q241-420 216-420t-42.5-17.5Zm528 0Q684-455 684-480t17.5-42.5Q719-540 744-540t42.5 17.5Q804-505 804-480t-17.5 42.5Q769-420 744-420t-42.5-17.5ZM432-129v-249L286-232q-11 11-25 10.5T236-233q-11-11-11-25.5t11-25.5l196-196-196.95-196.95Q224-688 224.5-702.5T236-728q11-11 25.5-11t25.5 11l145 146v-249q0-17 10.75-26.5t25.08-9.5q7.17 0 13.47 2.5 6.3 2.5 11.7 7.5l184 184q5 5.4 7.5 11.7 2.5 6.3 2.5 13.5t-2.5 13.5Q682-628 677-623L534-480l143 143q5 5.4 7.5 11.7 2.5 6.3 2.5 13.5t-2.5 13.5Q682-292 677-287L493-103q-5.32 5-11.52 7.5-6.21 2.5-13.3 2.5Q454-93 443-102.5T432-129Zm72-423 96-96-96-96v192Zm0 336 96-96-96-96v192Z"/></svg>