<svg xmlns="http://www.w3.org/2000/svg" height="20px" viewBox="0 -960 960 960" width="20px" fill="#e3e3e3"><path d="M432-129v-249L286-232q-11 11-25 10.5T236-233q-11-11-11-25.5t11-25.5l196-196-197-197q-11-11-10.5-25.5T236-728q11-11 25.5-11t25.5 11l145 146v-249q0-17 11-26.5t25-9.5q7 0 13.5 2.5T493-857l184 184q5 5 7.5 11.5T687-648q0 7-2.5 13.5T677-623L534-480l143 143q5 5 7.5 11.5T687-312q0 7-2.5 13.5T677-287L493-103q-5 5-11.5 7.5T468-93q-14 0-25-9.5T432-129Zm72-423 96-96-96-96v192Zm0 336 96-96-96-96v192Z"/></svg>