<?xml version="1.0" encoding="UTF-8" standalone="no"?>
<svg
   height="20px"
   viewBox="0 -960 960 960"
   width="20px"
   fill="#e3e3e3"
   version="1.1"
   id="svg1"
   sodipodi:docname="cpu.svg"
   inkscape:version="1.4.4 (dcaf3e7d9e, 2026-05-05)"
   xmlns:inkscape="http://www.inkscape.org/namespaces/inkscape"
   xmlns:sodipodi="http://sodipodi.sourceforge.net/DTD/sodipodi-0.dtd"
   xmlns="http://www.w3.org/2000/svg"
   xmlns:svg="http://www.w3.org/2000/svg">
  <defs
     id="defs1" />
  <sodipodi:namedview
     id="namedview1"
     pagecolor="#ffffff"
     bordercolor="#000000"
     borderopacity="0.25"
     inkscape:showpageshadow="2"
     inkscape:pageopacity="0.0"
     inkscape:pagecheckerboard="0"
     inkscape:deskcolor="#d1d1d1"
     showguides="true"
     inkscape:zoom="28.496403"
     inkscape:cx="10.36973"
     inkscape:cy="9.1941428"
     inkscape:window-width="1876"
     inkscape:window-height="1010"
     inkscape:window-x="1100"
     inkscape:window-y="466"
     inkscape:window-maximized="1"
     inkscape:current-layer="svg1">
    <sodipodi:guide
       position="560.91289,479.93942"
       orientation="0,-1"
       id="guide1"
       inkscape:locked="false" />
    <sodipodi:guide
       position="478.03154,491.5555"
       orientation="1,0"
       id="guide2"
       inkscape:locked="false" />
  </sodipodi:namedview>
  <path
     d="m 370.28573,-411.42857 v -137.14286 q 0,-17.48571 11.82857,-29.31428 11.82857,-11.82857 29.31428,-11.82857 h 137.14288 q 17.48571,0 29.31427,11.82857 11.82857,11.82857 11.82857,29.31428 v 137.14286 q 0,17.48571 -11.82857,29.31428 -11.82856,11.82858 -29.31427,11.82858 H 411.42858 q -17.48571,0 -29.31428,-11.82858 -11.82857,-11.82857 -11.82857,-29.31428 z m -27.42857,274.28571 v -68.57142 h -54.85715 q -33.14286,0 -57.71429,-24.57143 Q 205.71429,-254.85714 205.71429,-288 v -54.85713 h -68.57143 q -17.48571,0 -29.31429,-11.76001 Q 96,-366.37714 96,-383.76 q 0,-17.38286 11.82857,-29.38286 11.82858,-12 29.31429,-12 h 68.57143 v -109.71428 h -68.57143 q -17.48571,0 -29.31429,-11.76 Q 96,-558.37714 96,-575.76 q 0,-17.38286 11.82857,-29.38286 11.82858,-12 29.31429,-12 h 68.57143 V -672 q 0,-33.14286 24.57143,-57.71429 24.57143,-24.57143 57.71429,-24.57143 h 54.85715 v -68.57142 q 0,-17.48572 11.76,-29.31429 Q 366.37716,-864 383.76001,-864 q 17.38286,0 29.38286,11.82857 12,11.82857 12,29.31429 v 68.57143 h 109.7143 v -68.57143 q 0,-17.48572 11.76,-29.31429 Q 558.37717,-864 575.76002,-864 q 17.38286,0 29.38286,11.82857 12,11.82857 12,29.31429 v 68.57143 h 54.85714 q 33.14286,0 57.71429,24.57143 24.57143,24.57142 24.57143,57.71428 v 54.85714 h 68.57145 q 17.48569,0 29.31424,11.76 Q 864,-593.62286 864,-576.24 q 0,17.38286 -11.82857,29.38286 -11.82855,12 -29.31424,12 h -68.57145 v 109.71428 h 68.57145 q 17.48569,0 29.31424,11.76 Q 864,-401.62286 864,-384.24 q 0,17.38286 -11.82857,29.38286 -11.82855,12.00001 -29.31424,12.00001 H 754.28574 V -288 q 0,33.14286 -24.57143,57.71429 -24.57143,24.57143 -57.71429,24.57143 h -54.85714 v 68.57142 q 0,17.48572 -11.76,29.3143 Q 593.62288,-96 576.24003,-96 q -17.38287,0 -29.38287,-11.82856 -11.99999,-11.82858 -11.99999,-29.3143 v -68.57142 h -109.7143 v 68.57142 q 0,17.48572 -11.76,29.3143 Q 401.62287,-96 384.24002,-96 q -17.38287,0 -29.38286,-11.82856 -12,-11.82858 -12,-29.3143 z M 672.00002,-288 V -672 H 288.00001 v 384 z"
     id="path1"
     style="stroke-width:1.14286" />
</svg>
