<?xml version="1.0" encoding="UTF-8" standalone="no"?>
<svg
   enable-background="new 0 0 20 20"
   height="20px"
   viewBox="0 0 20 20"
   width="20px"
   fill="#e3e3e3"
   version="1.1"
   id="svg2"
   sodipodi:docname="lan.svg"
   inkscape:version="1.4.4 (dcaf3e7d9e, 2026-05-05)"
   xmlns:inkscape="http://www.inkscape.org/namespaces/inkscape"
   xmlns:sodipodi="http://sodipodi.sourceforge.net/DTD/sodipodi-0.dtd"
   xmlns="http://www.w3.org/2000/svg"
   xmlns:svg="http://www.w3.org/2000/svg">
  <defs
     id="defs2" />
  <sodipodi:namedview
     id="namedview2"
     pagecolor="#ffffff"
     bordercolor="#000000"
     borderopacity="0.25"
     inkscape:showpageshadow="2"
     inkscape:pageopacity="0.0"
     inkscape:pagecheckerboard="0"
     inkscape:deskcolor="#d1d1d1"
     inkscape:zoom="28.849957"
     inkscape:cx="8.3535654"
     inkscape:cy="9.5320767"
     inkscape:window-width="1876"
     inkscape:window-height="1010"
     inkscape:window-x="1100"
     inkscape:window-y="466"
     inkscape:window-maximized="1"
     inkscape:current-layer="svg2" />
  <g
     id="g1">
    <rect
       fill="none"
       height="20"
       width="20"
       id="rect1" />
  </g>
  <g
     id="g2"
     transform="matrix(1.1428571,0,0,1,-1.4285713,0)">
    <path
       d="m 12.5,18 h 3 c 0.83,0 1.5,-0.67 1.5,-1.5 v -2 C 17,13.67 16.33,13 15.5,13 h -0.75 v -2.25 c 0,-0.83 -0.67,-1.5 -1.5,-1.5 h -2.5 V 7 H 11.5 C 12.33,7 13,6.33 13,5.5 v -2 C 13,2.67 12.33,2 11.5,2 h -3 C 7.67,2 7,2.67 7,3.5 v 2 C 7,6.33 7.67,7 8.5,7 h 0.75 v 2.25 h -2.5 c -0.83,0 -1.5,0.67 -1.5,1.5 V 13 H 4.5 C 3.67,13 3,13.67 3,14.5 v 2 C 3,17.33 3.67,18 4.5,18 h 3 C 8.33,18 9,17.33 9,16.5 v -2 C 9,13.67 8.33,13 7.5,13 H 6.75 v -2.25 h 6.5 V 13 H 12.5 C 11.67,13 11,13.67 11,14.5 v 2 c 0,0.83 0.67,1.5 1.5,1.5 z"
       id="path1" />
  </g>
</svg>
