<svg xmlns="http://www.w3.org/2000/svg" height="20px" viewBox="0 -960 960 960" width="20px" fill="#e3e3e3"><path d="M384-192q-29.7 0-50.85-21.21-21.15-21.21-21.15-51T333.15-315q21.15-21 50.85-21h408q29.7 0 50.85 21.21 21.15 21.21 21.15 51T842.85-213Q821.7-192 792-192H384Zm0-216q-29.7 0-50.85-21.21-21.15-21.21-21.15-51T333.15-531q21.15-21 50.85-21h408q29.7 0 50.85 21.21 21.15 21.21 21.15 51T842.85-429Q821.7-408 792-408H384Zm0-216q-29.7 0-50.85-21.21-21.15-21.21-21.15-51T333.15-747q21.15-21 50.85-21h408q29.7 0 50.85 21.21 21.15 21.21 21.15 51T842.85-645Q821.7-624 792-624H384Zm-267-21.21q-21-21.21-21-51T117.21-747q21.21-21 51-21T219-746.79q21 21.21 21 51T218.79-645q-21.21 21-51 21T117-645.21ZM167.79-408Q138-408 117-429.21t-21-51Q96-510 117.21-531t51-21Q198-552 219-530.79t21 51Q240-450 218.79-429t-51 21Zm0 216Q138-192 117-213.21t-21-51Q96-294 117.21-315t51-21Q198-336 219-314.79t21 51Q240-234 218.79-213t-51 21Z"/></svg>