<svg xmlns="http://www.w3.org/2000/svg" height="20px" viewBox="0 -960 960 960" width="20px" fill="#e3e3e3"><path d="M445.5-496.35Q431-510.7 431-531v-314q0-20.3 14.29-34.65Q459.58-894 479.79-894t34.71 14.35Q529-865.3 529-845v314q0 20.3-14.29 34.65Q500.42-482 480.21-482t-34.71-14.35ZM336.87-143.1q-67.14-29.1-116.9-78.87-49.77-49.76-78.87-116.9Q112-406 112-482q0-62.57 19-120.79Q150-661 189-709q13-17 34-21t36 11q13 14 15.5 32.5T268-654q-28.45 38-43.23 81.5Q210-529 210-482q0 112.31 78.78 191.16 78.78 78.84 191 78.84T671-290.84q79-78.85 79-191.16 0-49-16.5-92.5T689-657q-10-14-7-31.5t17-31.5q15-16 38-11t37.78 24.36Q812-658 830-600t18 118q0 76-29.1 143.13-29.1 67.14-78.87 116.9-49.76 49.77-116.9 78.87Q556-114 480-114t-143.13-29.1Z"/></svg>