<svg xmlns="http://www.w3.org/2000/svg" height="20px" viewBox="0 -960 960 960" width="20px" fill="#e3e3e3"><path d="M616-344q56-56 56-136t-56-136q-56-56-136-56t-136 56q-56 56-56 136t56 136q56 56 136 56t136-56Zm-205.5-66.62q-28.5-28.62-28.5-69.5 0-40.88 28.62-69.38 28.62-28.5 69.5-28.5 40.88 0 69.38 28.62 28.5 28.62 28.5 69.5 0 40.88-28.62 69.38-28.62 28.5-69.5 28.5-40.88 0-69.38-28.62ZM221-236Q102-310 36-434q-6-10-8.5-21.92-2.5-11.93-2.5-24Q25-492 27.5-504q2.5-12 8.5-22 66-124 185-198t259-74q140 0 259 74t185 198q6 10 8.5 21.92 2.5 11.93 2.5 24 0 12.08-2.5 24.08-2.5 12-8.5 22-66 124-185 198t-259 74q-140 0-259-74Zm259-244Zm211.37 160.92Q788.74-378.16 841-480q-52.26-101.84-149.63-160.92Q594-700 480-700t-211.37 59.08Q171.26-581.84 119-480q52.26 101.84 149.63 160.92Q366-260 480-260t211.37-59.08Z"/></svg>