<svg xmlns="http://www.w3.org/2000/svg" height="20px" viewBox="0 -960 960 960" width="20px" fill="#e3e3e3"><path d="M616-616q24 24 38.5 58t17.5 71q0 20-13 33.5T626-440q-20 0-34-13.5T578-487q1-21-6.5-38.5t-19.5-30Q540-568 523-574t-37-5q-20 0-34-13t-14-33q0-20 14-34t34-14q38 3 71.5 17.5T616-616Zm-136-84q-13.68 0-26.48 1.05t-26.6 1.85Q407-695 387.5-705.5t-24.5-30q-5-19.5 4.5-36.5t29.27-20.25Q418-795 438.85-796.5 459.7-798 480-798q144 0 266 73.5t183.13 204.62Q934-509 936-499.48q2 9.52 2 19.48t-2 19.98Q934-450 930-439q-16.75 39.82-42.87 72.91Q861-333 830-302q-15 14-35 12t-34-17.16q-14-15.17-11.5-35.5Q752-363 767-379q24-23 41.86-47.5Q826.73-451 841-480q-50-103-148-161.5T480-700Zm0 538q-142 0-261.5-74.5T33.93-437.19Q29-448 26.5-458.53q-2.5-10.52-2.5-21.5 0-10.97 2-22.47 2-11.5 7-21.5 21-43 49.76-80.98Q111.53-642.96 148-674l-68-69q-15-15-15-34t15-34q15-15 34.5-15t34.5 15l662 662q15 15 14.5 34.5T811-81q-15 15-34.5 15T742-81L634-188q-37.4 14-76.4 20-39 6-77.6 6ZM219-603q-30 27-56.5 56.5T119-480q50 103 148 161.5T480-260q18.21 0 36.6-1.5Q535-263 552-268l-25-27q-11 4-23.5 5.5T480-288q-80 0-136-56t-56-136q0-11 2.5-23.5T295-527l-76-76Zm311 74ZM407-421Z"/></svg>