<svg xmlns="http://www.w3.org/2000/svg" height="20px" viewBox="0 -960 960 960" width="20px" fill="#e3e3e3"><path d="M264-444q48 0 88 27t57 72l7 19 20 3q35 6 57.5 32.5T516-229q0 40-28 68t-68 28H264q-65 0-110.5-45T108-288q0-66 46-111t110-45Zm312-67q57 57 131 83t153 20q10-1 18 2.5t13 10.5q5 7 7.5 15.5T898-362q-35 121-138.5 193.5T531-96h-7q31-24 47.5-59t16.5-73q0-54-34-99t-85-61q-27-60-82.5-94T264-516q-12 0-23 1.5t-22 3.5q-20 4-39 11t-36 18q0-129 72.5-227.5T410-848q9-3 17.5-1t15.5 7q7 5 11.5 12.5T458-812q-4 89 25.5 163.5T576-511Z"/></svg>