<?xml version="1.0" encoding="UTF-8" standalone="no"?>
<!-- Generator: Adobe Illustrator 18.1.1, SVG Export Plug-In . SVG Version: 6.00 Build 0)  -->

<svg
   version="1.1"
   id="Capa_1"
   x="0px"
   y="0px"
   viewBox="0 0 31.955 31.955"
   style="enable-background:new 0 0 31.955 31.955;"
   xml:space="preserve"
   sodipodi:docname="dot.svg"
   inkscape:version="1.4.4 (dcaf3e7d9e, 2026-05-05)"
   xmlns:inkscape="http://www.inkscape.org/namespaces/inkscape"
   xmlns:sodipodi="http://sodipodi.sourceforge.net/DTD/sodipodi-0.dtd"
   xmlns="http://www.w3.org/2000/svg"
   xmlns:svg="http://www.w3.org/2000/svg"><defs
   id="defs17" /><sodipodi:namedview
   id="namedview17"
   pagecolor="#ffffff"
   bordercolor="#000000"
   borderopacity="0.25"
   inkscape:showpageshadow="2"
   inkscape:pageopacity="0.0"
   inkscape:pagecheckerboard="0"
   inkscape:deskcolor="#d1d1d1"
   showguides="true"
   inkscape:zoom="18.056615"
   inkscape:cx="19.217334"
   inkscape:cy="14.066867"
   inkscape:window-width="1876"
   inkscape:window-height="1010"
   inkscape:window-x="1100"
   inkscape:window-y="466"
   inkscape:window-maximized="1"
   inkscape:current-layer="Capa_1"><sodipodi:guide
     position="16.033872,15.945722"
     orientation="0,-1"
     id="guide18"
     inkscape:locked="false" /><sodipodi:guide
     position="15.996987,10.214846"
     orientation="1,0"
     id="guide19"
     inkscape:locked="false" /></sodipodi:namedview>
<g
   id="g2"
   transform="matrix(0.31293807,0,0,0.31295638,10.976856,10.989622)">
	<path
   style="fill:#030104"
   d="M 27.25,4.655 C 20.996,-1.571 10.88,-1.546 4.656,4.706 -1.571,10.96 -1.548,21.076 4.705,27.3 10.961,33.526 21.079,33.503 27.302,27.249 33.526,20.995 33.505,10.878 27.25,4.655 Z"
   id="path1" />
	<path
   style="fill:#030104"
   d="m 13.288,23.896 -1.768,5.207 c 2.567,0.829 5.331,0.886 7.926,0.17 l -0.665,-5.416 c -1.771,0.63 -3.714,0.643 -5.493,0.039 z M 8.12,13.122 2.475,12.263 C 1.734,14.929 1.809,17.777 2.7,20.406 L 8.191,19.031 C 7.452,17.138 7.426,15.029 8.12,13.122 Z m 20.643,-1.789 -4.965,1.675 c 0.798,2.106 0.716,4.468 -0.247,6.522 l 5.351,0.672 c 0.925,-2.883 0.878,-6.009 -0.139,-8.869 z m -17.369,-8.45 1.018,5.528 c 2.027,-0.954 4.356,-1.05 6.442,-0.288 L 20.437,2.986 C 17.523,1.94 14.328,1.906 11.394,2.883 Z"
   id="path2" />
	<circle
   style="fill:#030104"
   cx="15.979"
   cy="15.977"
   r="6.1170001"
   id="circle2" />
</g>
<g
   id="g3">
</g>
<g
   id="g4">
</g>
<g
   id="g5">
</g>
<g
   id="g6">
</g>
<g
   id="g7">
</g>
<g
   id="g8">
</g>
<g
   id="g9">
</g>
<g
   id="g10">
</g>
<g
   id="g11">
</g>
<g
   id="g12">
</g>
<g
   id="g13">
</g>
<g
   id="g14">
</g>
<g
   id="g15">
</g>
<g
   id="g16">
</g>
<g
   id="g17">
</g>
</svg>
