<?xml version="1.0" encoding="UTF-8" standalone="no"?>
<!-- Generator: Adobe Illustrator 17.1.0, SVG Export Plug-In . SVG Version: 6.00 Build 0)  -->

<svg
   version="1.1"
   id="Capa_1"
   x="0px"
   y="0px"
   viewBox="0 0 333.561 333.561"
   style="enable-background:new 0 0 333.561 333.561;"
   xml:space="preserve"
   sodipodi:docname="ghost.svg"
   inkscape:version="1.4.4 (dcaf3e7d9e, 2026-05-05)"
   xmlns:inkscape="http://www.inkscape.org/namespaces/inkscape"
   xmlns:sodipodi="http://sodipodi.sourceforge.net/DTD/sodipodi-0.dtd"
   xmlns="http://www.w3.org/2000/svg"
   xmlns:svg="http://www.w3.org/2000/svg"><defs
   id="defs15" /><sodipodi:namedview
   id="namedview15"
   pagecolor="#ffffff"
   bordercolor="#000000"
   borderopacity="0.25"
   inkscape:showpageshadow="2"
   inkscape:pageopacity="0.0"
   inkscape:pagecheckerboard="0"
   inkscape:deskcolor="#d1d1d1"
   showguides="true"
   inkscape:zoom="2.4163496"
   inkscape:cx="166.7805"
   inkscape:cy="166.7805"
   inkscape:window-width="1876"
   inkscape:window-height="1010"
   inkscape:window-x="1100"
   inkscape:window-y="466"
   inkscape:window-maximized="1"
   inkscape:current-layer="Capa_1"><sodipodi:guide
     position="166.36665,122.91268"
     orientation="1,0"
     id="guide15"
     inkscape:locked="false" /><sodipodi:guide
     position="129.71863,166.59684"
     orientation="0,-1"
     id="guide16"
     inkscape:locked="false" /></sodipodi:namedview>
<path
   d="M 273.76859,86.088495 C 264.82618,68.981819 252.46562,55.351209 237.03276,45.573567 217.90223,33.455604 194.0432,27.311 166.118,27.311 c -27.92521,0 -51.78424,6.144604 -70.914753,18.263406 C 79.769543,55.351209 67.409825,68.982658 58.467413,86.089335 43.571786,114.58284 43.142,143.07633 43.142,146.2309 v 152.82938 c 0,1.17519 8.39e-4,2.24379 0.03022,3.01857 0.179637,4.85525 3.401357,5.23215 4.384325,5.23215 1.953347,0 3.030331,-0.98465 6.141246,-4.0964 l 0.178799,-0.17964 29.353911,-37.47285 29.291779,37.16478 0.32906,0.37018 c 2.3059,2.30424 6.46359,3.97721 9.8876,3.97721 h 2.86748 c 3.42487,0 7.58254,-1.67297 9.88762,-3.97805 l 0.17627,-0.17627 29.43366,-37.40485 29.30355,37.19584 0.32989,0.37018 c 2.31346,2.31346 6.47198,3.99231 9.88761,3.99231 h 2.86748 c 3.42486,0 7.58338,-1.67297 9.88844,-3.97805 l 0.17629,-0.17627 29.43281,-37.40401 29.30102,37.30747 0.33242,0.37523 c 1.23396,1.23396 4.3902,4.10312 7.05286,4.10312 3.34093,0 5.41599,-3.15876 5.41599,-8.24317 V 146.2309 c 0.002,-3.1554 -0.42811,-31.64806 -15.32374,-60.142405 z M 117.91308,170.13609 c -15.10884,0 -27.356904,-12.24807 -27.356904,-27.35692 0,-15.10883 12.248064,-27.35691 27.356904,-27.35691 15.10884,0 27.35775,12.24808 27.35775,27.35691 0,15.10885 -12.24891,27.35692 -27.35775,27.35692 z m 95.69465,0 c -15.10885,0 -27.35692,-12.24807 -27.35692,-27.35692 0,-15.10883 12.24807,-27.35691 27.35692,-27.35691 15.10883,0 27.35775,12.24808 27.35775,27.35691 0,15.10885 -12.24892,27.35692 -27.35775,27.35692 z"
   id="path1"
   style="stroke-width:0.839427" />
<g
   id="g1">
</g>
<g
   id="g2">
</g>
<g
   id="g3">
</g>
<g
   id="g4">
</g>
<g
   id="g5">
</g>
<g
   id="g6">
</g>
<g
   id="g7">
</g>
<g
   id="g8">
</g>
<g
   id="g9">
</g>
<g
   id="g10">
</g>
<g
   id="g11">
</g>
<g
   id="g12">
</g>
<g
   id="g13">
</g>
<g
   id="g14">
</g>
<g
   id="g15">
</g>
</svg>
