<svg xmlns="http://www.w3.org/2000/svg" height="20px" viewBox="0 -960 960 960" width="20px" fill="#e3e3e3"><path d="M421.5-346.34q10.5-10.34 10.5-25.62v-215.76q0-15.28-10.29-25.78-10.29-10.5-25.5-10.5t-25.71 10.34Q360-603.32 360-588.04v215.76q0 15.28 10.29 25.78 10.29 10.5 25.5 10.5t25.71-10.34Zm168 0q10.5-10.34 10.5-25.62v-215.76q0-15.28-10.29-25.78-10.29-10.5-25.5-10.5t-25.71 10.34Q528-603.32 528-588.04v215.76q0 15.28 10.29 25.78 10.29 10.5 25.5 10.5t25.71-10.34ZM480.28-96Q401-96 331-126t-122.5-82.5Q156-261 126-330.96t-30-149.5Q96-560 126-629.5q30-69.5 82.5-122T330.96-834q69.96-30 149.5-30t149.04 30q69.5 30 122 82.5T834-629.28q30 69.73 30 149Q864-401 834-331t-82.5 122.5Q699-156 629.28-126q-69.73 30-149 30Z"/></svg>