<svg xmlns="http://www.w3.org/2000/svg" height="20px" viewBox="0 -960 960 960" width="20px" fill="#e3e3e3"><path d="M480.31-528.37h-24.15q-10.47 0-17.32-6.81Q432-542 432-552t6.8-17q6.8-7 17.2-7h36q15.3 0 25.65 10.35Q528-555.3 528-540v131.91q0 10.09-7 17.09t-17 7q-10 0-16.84-6.82-6.85-6.81-6.85-17.24v-120.31ZM282-204l31.78 31.78Q325-161 325-146.5q0 14.5-10.52 25.5-11.48 11-25.98 11t-25.46-10.96L169-215q-5-5.4-7.5-11.7-2.5-6.3-2.5-13.5t2.5-13.5Q164-260 169-265l94.04-94.04Q274-370 288.5-370t25.98 11Q325-348 325-333.5t-11.22 25.72L282-276h414v-120q0-15.3 10.29-25.65Q716.58-432 731.79-432t25.71 10.35Q768-411.3 768-396v120q0 29.7-21.15 50.85Q725.7-204 696-204H282Zm396-480H264v120q0 15.3-10.29 25.65Q243.42-528 228.21-528t-25.71-10.35Q192-548.7 192-564v-120q0-29.7 21.15-50.85Q234.3-756 264-756h414l-31.78-31.78Q635-799 635-813.5q0-14.5 10.52-25.5 11.48-11 25.98-11t25.46 10.96L791-745q5 5.4 7.5 11.7 2.5 6.3 2.5 13.5t-2.5 13.5Q796-700 791-695l-94.04 94.04Q686-590 672-590.5T646.52-602Q636-613 636-627.5t10.96-25.46L678-684Z"/></svg>